HIERARCHY
ROOT Hips
{
	OFFSET 0.00000 0.00000 0.00000
	CHANNELS 6 Xposition Yposition Zposition Zrotation Yrotation Xrotation 
	JOINT LHipJoint
	{
		OFFSET 0 0 0
		CHANNELS 3 Zrotation Yrotation Xrotation
		JOINT LeftHip
		{
			OFFSET 1.65412 -1.54119 0.76744
			CHANNELS 3 Zrotation Yrotation Xrotation
			JOINT LeftKnee
			{
				OFFSET 2.19550 -6.03209 0.00000
				CHANNELS 3 Zrotation Yrotation Xrotation
				JOINT LeftAnkle
				{
					OFFSET 2.38814 -6.56138 0.00000
					CHANNELS 3 Zrotation Yrotation Xrotation
					JOINT LeftToe
					{
						OFFSET 0.17337 -0.47632 1.75875
						CHANNELS 3 Zrotation Yrotation Xrotation
						End Site
						{
							OFFSET 0.00000 -0.00000 0.92050
						}
					}
				}
			}
		}
	}
	JOINT RHipJoint
	{
		OFFSET 0 0 0
		CHANNELS 3 Zrotation Yrotation Xrotation
		JOINT RightHip
		{
			OFFSET -1.40291 -1.54119 0.76744
			CHANNELS 3 Zrotation Yrotation Xrotation
			JOINT RightKnee
			{
				OFFSET -2.22156 -6.10370 0.00000
				CHANNELS 3 Zrotation Yrotation Xrotation
				JOINT RightAnkle
				{
					OFFSET -2.46840 -6.78188 0.00000
					CHANNELS 3 Zrotation Yrotation Xrotation
					JOINT RightToe
					{
						OFFSET -0.15659 -0.43024 1.84117
						CHANNELS 3 Zrotation Yrotation Xrotation
						End Site
						{
							OFFSET -0.00000 -0.00000 0.95587
						}
					}
				}
			}
		}
	}
	JOINT lowerback
	{
		OFFSET 0 0 0
		CHANNELS 3 Zrotation Yrotation Xrotation
		JOINT Chest
		{
			OFFSET -0.01936 1.82120 -0.32061
			CHANNELS 3 Zrotation Yrotation Xrotation
			JOINT Chest2
			{
				OFFSET -0.00532 1.85767 -0.00071
				CHANNELS 3 Zrotation Yrotation Xrotation
				JOINT lowerneck
				{
					OFFSET 0 0 0
					CHANNELS 3 Zrotation Yrotation Xrotation
					JOINT Neck
					{
						OFFSET -0.10687 1.58194 0.10810
						CHANNELS 3 Zrotation Yrotation Xrotation
						JOINT Head
						{
							OFFSET 0.15346 1.57382 -0.25612
							CHANNELS 3 Zrotation Yrotation Xrotation
							End Site
							{
								OFFSET 0.05334 1.61251 -0.10513
							}
						}
					}
				}
				JOINT LeftCollar
				{
					OFFSET 0 0 0
					CHANNELS 3 Zrotation Yrotation Xrotation
					JOINT LeftShoulder
					{
						OFFSET 2.85758 0.89498 -0.01485
CHANNELS 3 Zrotation Xrotation Yrotation
						JOINT LeftElbow
						{
OFFSET 0 -4.791850 -0.000000
CHANNELS 3 Zrotation Xrotation Yrotation
							JOINT LeftWrist
							{
OFFSET 0 -2.655530 0.000000
CHANNELS 3 Zrotation Xrotation Yrotation
								JOINT lhand
								{
									OFFSET 0 0 0
CHANNELS 3 Zrotation Xrotation Yrotation
									JOINT LFingers
									{
OFFSET 0 -0.743900 0.000000
CHANNELS 3 Zrotation Xrotation Yrotation
										End Site
										{
OFFSET 0 -0.599750 0.000000
										}
									}
								}
								JOINT LThumb
								{
OFFSET 0 0.000000 0.000000
CHANNELS 3 Zrotation Xrotation Yrotation
									End Site
									{
OFFSET 0 -0.608910 0.608910
									}
								}
							}
						}
					}
				}
				JOINT RightCollar
				{
					OFFSET 0 0 0
					CHANNELS 3 Zrotation Yrotation Xrotation
					JOINT RightShoulder
					{
						OFFSET -2.93906 0.88031 0.02490
CHANNELS 3 Zrotation Xrotation Yrotation
						JOINT RightElbow
						{
OFFSET 0 -4.772540 -0.000000
CHANNELS 3 Zrotation Xrotation Yrotation
							JOINT RightWrist
							{
OFFSET 0 -2.759950 -0.000000
CHANNELS 3 Zrotation Xrotation Yrotation
								JOINT rhand
								{
									OFFSET 0 0 0
CHANNELS 3 Zrotation Xrotation Yrotation
									JOINT RFingers
									{
OFFSET 0 -0.701620 0.000000
CHANNELS 3 Zrotation Xrotation Yrotation
										End Site
										{
OFFSET 0 -0.565660 0.000000
										}
									}
								}
								JOINT RThumb
								{
OFFSET 0 0.000000 0.000000
CHANNELS 3 Zrotation Xrotation Yrotation
									End Site
									{
OFFSET 0 -0.574300 0.574300
									}
								}
							}
						}
					}
				}
			}
		}
	}
}
MOTION
Frames: 9
Frame Time: 0.008333333333333333
0.486457 16.133351 0.262501 -0.742599 -4.882788 5.279673 0.000000 0.000000 0.000000 -17.492351 -9.436075 0.625786 0.404225 4.080713 11.304003 0.282975 7.229912 -15.201911 0.309878 -3.577021 -9.889742 0.000000 0.000000 0.000000 16.942320 10.583768 1.498325 -0.289007 -3.457090 9.554016 0.107048 -9.882399 -12.124261 -1.067651 6.568305 -18.442713 -2.836172 -0.786450 5.761175 -0.679726 -1.364226 -4.156330 1.043702 -0.541625 -7.547291 -5.501924 2.115830 -13.260871 6.473186 2.481768 31.362384 3.786777 1.275926 12.369399 0.000000 0.000000 0.000000 41.672401 -65.415273 -7.268063 53.752922 -54.291392 29.225963 13.959557 -1.240399 -23.023608 0.000000 0.000000 0.000000 -7.125000 0.000000 0.000000 -15.616615 52.949290 3.117193 0.000000 0.000000 0.000000 -2.452864 6.787983 32.471202 -22.337224 -33.355922 -6.770378 -12.472257 0.852461 -10.866001 0.000000 0.000000 0.000000 7.125000 0.000000 0.000000 10.288308 18.953202 6.493995
0.638753 16.074043 -0.034687 -4.005915 -13.839512 6.272882 0.000000 0.000000 0.000000 -14.787981 -6.870475 -6.796475 1.572320 7.911681 22.446290 0.698666 8.587122 -21.162256 0.283342 -3.423042 -9.458893 0.000000 0.000000 0.000000 18.889726 12.736349 -3.005607 -0.431834 -4.217018 11.688120 -0.143146 -2.780797 -8.734076 -1.492563 7.717747 -21.860080 -1.515537 -1.295301 10.510664 -1.485104 -2.037823 -1.487284 -0.371575 -0.964679 -7.482328 -3.854384 7.383096 -14.114244 5.952357 9.793405 22.722605 3.772110 4.893141 8.914351 0.000000 0.000000 0.000000 144.835996 -67.930719 -137.912678 4.628162 -7.955672 0.322557 10.724475 133.663154 -15.325691 0.000000 0.000000 0.000000 -7.125000 0.000000 0.000000 -15.650515 44.971967 -0.009581 0.000000 0.000000 0.000000 -3.825631 8.390866 27.416960 -21.728307 -32.668256 -6.438687 -14.092972 -5.472769 -10.240484 0.000000 0.000000 0.000000 7.125000 0.000000 0.000000 9.165714 19.497457 5.653173
0.718678 16.062991 -0.286788 -6.168055 -9.835275 10.043653 0.000000 0.000000 0.000000 -11.049194 -11.001781 -14.738901 2.397517 9.649190 27.847989 0.785225 6.874634 -20.610089 0.377600 -3.946487 -10.926219 0.000000 0.000000 0.000000 20.302488 13.180879 -7.019363 -0.374409 -3.930021 10.879897 -0.031322 -5.013741 -8.108896 -1.374847 7.419935 -20.965675 -3.542739 -1.003477 13.274882 -2.204168 -2.064073 -0.293397 0.062832 -0.909821 -7.737028 -6.007333 5.027885 -13.839911 10.199654 6.427662 14.340155 4.821833 3.650016 6.057919 0.000000 0.000000 0.000000 149.716886 -70.198090 138.696846 5.068517 -8.699912 0.385794 11.113025 49.789434 -16.688656 0.000000 0.000000 0.000000 -7.125000 0.000000 0.000000 -15.753365 46.346685 0.538115 0.000000 0.000000 0.000000 -4.558434 10.530995 20.358206 -15.605715 -24.983120 -3.477746 -12.861062 2.247779 -10.798355 0.000000 0.000000 0.000000 7.125000 0.000000 0.000000 10.017619 19.000307 6.307086
0.912468 16.031171 -0.324711 -6.694367 -5.527436 10.710083 0.000000 0.000000 0.000000 -10.305373 -13.568330 -17.737780 2.835189 10.423321 30.358844 0.804199 4.839234 -19.370135 0.360404 -3.856398 -10.673007 0.000000 0.000000 0.000000 20.160464 13.055180 -7.264772 -0.358865 -3.848566 10.651133 0.102656 -8.155130 -9.215114 -1.130332 6.752578 -18.984515 -4.718963 -0.631068 13.989740 -2.054697 -1.753943 0.369884 0.832105 -0.723656 -7.395659 -8.590252 2.904931 -11.158994 12.382902 3.750836 11.479460 5.585090 2.316923 4.842668 0.000000 0.000000 0.000000 138.478286 -72.268122 91.740363 11.869592 -19.608670 2.058440 8.864667 11.614760 -19.742407 0.000000 0.000000 0.000000 -7.125000 0.000000 0.000000 -18.990891 48.976355 1.925704 0.000000 0.000000 0.000000 -5.759506 6.987298 25.902399 -18.221618 -28.439856 -4.654339 -14.609974 -0.587030 -11.478373 0.000000 0.000000 0.000000 7.125000 0.000000 0.000000 8.776907 18.208290 5.661782
1.122928 16.001161 -0.375884 -7.137371 -0.998862 11.684782 0.000000 0.000000 0.000000 -9.539720 -16.437319 -20.786200 3.188090 10.993406 32.257714 0.784380 3.099097 -18.130904 0.343945 -3.768682 -10.426801 0.000000 0.000000 0.000000 19.919300 12.128103 -7.880221 -0.307981 -3.567984 9.864190 0.263732 -10.805069 -10.247938 -0.854247 5.894386 -16.478395 -4.377992 0.154246 14.859692 -2.310955 -0.722532 0.609337 0.163835 -0.237311 -7.681154 -9.254313 0.453563 -9.222684 14.239853 0.397443 8.749822 6.001285 0.670718 4.057416 0.000000 0.000000 0.000000 136.569443 -72.821196 77.949399 16.021138 -25.549207 3.655100 9.697945 0.637529 -20.646781 0.000000 0.000000 0.000000 -7.125000 0.000000 0.000000 -18.611253 49.960002 2.347441 0.000000 0.000000 0.000000 -5.938455 4.683743 28.787683 -20.656997 -31.425704 -5.870024 -14.785124 -2.526720 -12.347528 0.000000 0.000000 0.000000 7.125000 0.000000 0.000000 8.644883 17.311566 5.747053
1.243833 15.982096 -0.389332 -6.864462 1.460227 12.359988 0.000000 0.000000 0.000000 -9.659371 -18.795331 -21.969116 3.286247 11.144618 32.769179 0.766656 2.669179 -17.714954 0.327062 -3.675805 -10.166393 0.000000 0.000000 0.000000 19.187330 11.878246 -8.815529 -0.350101 -3.801801 10.519765 0.340318 -12.265713 -11.664243 -0.683083 5.284125 -14.720733 -5.573144 0.606067 15.389275 -2.466830 -0.373923 0.720471 0.594742 -0.026062 -7.866124 -9.568682 -0.501070 -8.737463 15.371606 -0.827410 6.974299 6.316968 0.067210 3.608358 0.000000 0.000000 0.000000 138.595822 -72.881835 75.970453 17.303135 -27.255686 4.225227 9.734125 -0.955147 -20.875947 0.000000 0.000000 0.000000 -7.125000 0.000000 0.000000 -18.680240 50.183507 2.462085 0.000000 0.000000 0.000000 -5.926317 4.772833 29.862691 -20.000012 -30.642330 -5.531364 -13.601294 -0.591011 -11.883382 0.000000 0.000000 0.000000 7.125000 0.000000 0.000000 9.473347 17.861369 6.196674
1.300447 15.972699 -0.383699 -7.445484 1.852389 12.907354 0.000000 0.000000 0.000000 -8.850933 -19.848365 -22.921654 3.460584 11.405735 33.660655 0.776329 2.942810 -17.962150 0.335791 -3.723960 -10.301238 0.000000 0.000000 0.000000 19.566143 11.704915 -9.282773 -0.326224 -3.670967 10.152677 0.364143 -12.400872 -11.399455 -0.737901 5.487791 -15.305297 -5.716635 0.732425 15.927796 -2.632431 -0.282002 0.860441 0.475621 0.021495 -8.021131 -10.166524 -0.934915 -8.886034 16.800828 -1.301737 5.591048 6.841894 -0.141580 3.308114 0.000000 0.000000 0.000000 138.637592 -72.310352 73.624418 18.134213 -28.328729 4.612765 9.540290 -2.233323 -20.889447 0.000000 0.000000 0.000000 -7.125000 0.000000 0.000000 -18.868196 50.166451 2.480333 0.000000 0.000000 0.000000 -6.516995 4.777059 30.628248 -19.397912 -29.910086 -5.227765 -14.618702 -0.565740 -12.212130 0.000000 0.000000 0.000000 7.125000 0.000000 0.000000 8.761708 17.460958 5.797454
1.333425 15.975097 -0.429429 -7.433852 1.665269 14.181979 0.000000 0.000000 0.000000 -8.339157 -20.625834 -24.649007 3.542847 11.525837 34.074564 0.764471 3.373952 -18.074748 0.322651 -3.651050 -10.097011 0.000000 0.000000 0.000000 19.039190 12.520550 -11.588386 -0.418886 -4.154156 11.510789 0.350850 -12.294045 -11.475120 -0.776245 5.625317 -15.700983 -6.167371 1.022669 16.962478 -2.766305 -0.084349 0.859621 0.528978 0.142839 -8.611754 -10.079710 -1.156892 -9.414188 17.378165 -1.460324 4.229253 6.992017 -0.204245 3.032250 0.000000 0.000000 0.000000 139.205168 -72.256809 73.854825 18.869998 -29.256710 4.967183 9.477393 -1.727512 -20.403446 0.000000 0.000000 0.000000 -7.125000 0.000000 0.000000 -18.709691 49.695029 2.235533 0.000000 0.000000 0.000000 -7.415070 3.654013 32.609733 -19.603490 -30.161637 -5.330681 -14.774849 -1.343670 -12.103735 0.000000 0.000000 0.000000 7.125000 0.000000 0.000000 8.654329 17.560512 5.705637
1.333971 15.993014 -0.514927 -7.069189 1.913914 15.568538 0.000000 0.000000 0.000000 -7.949955 -21.380453 -26.482019 3.489363 11.447994 33.806215 0.688429 3.665716 -17.428074 0.284335 -3.429336 -9.476574 0.000000 0.000000 0.000000 18.170969 13.613313 -13.670228 -0.477171 -4.429956 12.289584 0.406434 -12.941117 -11.676908 -0.727771 5.450699 -15.198684 -6.140716 1.087077 17.501055 -2.718999 -0.025300 1.058502 0.547946 0.169849 -8.696978 -9.929075 -1.377072 -9.855476 17.498518 -1.598226 2.915607 6.984499 -0.279848 2.747542 0.000000 0.000000 0.000000 139.715054 -71.296216 73.941350 19.243554 -29.720196 5.151070 9.337574 -1.195963 -21.263482 0.000000 0.000000 0.000000 -7.125000 0.000000 0.000000 -19.230301 50.489552 2.688007 0.000000 0.000000 0.000000 -7.766325 2.208263 33.735631 -20.345169 -31.055932 -5.708348 -14.884522 -1.691226 -12.008465 0.000000 0.000000 0.000000 7.125000 0.000000 0.000000 8.579010 17.650137 5.637806
